<svg width="258" height="59" viewBox="0 0 258 59" fill="none" xmlns="http://www.w3.org/2000/svg">
    <g filter="url(#filter0_d_2030_451)">
        <path
            d="M21.1922 8.8C24.4589 8.8 27.0589 9.86667 28.9922 12C30.9589 14.1 31.9422 17 31.9422 20.7V37H23.4422V21.85C23.4422 19.9833 22.9589 18.5333 21.9922 17.5C21.0255 16.4667 19.7255 15.95 18.0922 15.95C16.4589 15.95 15.1589 16.4667 14.1922 17.5C13.2255 18.5333 12.7422 19.9833 12.7422 21.85V37H4.19219V9.1H12.7422V12.8C13.6089 11.5667 14.7755 10.6 16.2422 9.9C17.7089 9.16667 19.3589 8.8 21.1922 8.8ZM65.5336 9.1L48.0336 50.25H38.8336L45.2336 36.05L33.8836 9.1H43.4336L49.8836 26.55L56.2836 9.1H65.5336ZM66.0754 23C66.0754 20.1333 66.6087 17.6167 67.6754 15.45C68.7754 13.2833 70.2587 11.6167 72.1254 10.45C73.9921 9.28333 76.0754 8.7 78.3754 8.7C80.3421 8.7 82.0587 9.1 83.5254 9.9C85.0254 10.7 86.1754 11.75 86.9754 13.05V9.1H95.5254V37H86.9754V33.05C86.1421 34.35 84.9754 35.4 83.4754 36.2C82.0087 37 80.2921 37.4 78.3254 37.4C76.0587 37.4 73.9921 36.8167 72.1254 35.65C70.2587 34.45 68.7754 32.7667 67.6754 30.6C66.6087 28.4 66.0754 25.8667 66.0754 23ZM86.9754 23.05C86.9754 20.9167 86.3754 19.2333 85.1754 18C84.0087 16.7667 82.5754 16.15 80.8754 16.15C79.1754 16.15 77.7254 16.7667 76.5254 18C75.3587 19.2 74.7754 20.8667 74.7754 23C74.7754 25.1333 75.3587 26.8333 76.5254 28.1C77.7254 29.3333 79.1754 29.95 80.8754 29.95C82.5754 29.95 84.0087 29.3333 85.1754 28.1C86.3754 26.8667 86.9754 25.1833 86.9754 23.05ZM117.861 8.8C121.128 8.8 123.728 9.86667 125.661 12C127.628 14.1 128.611 17 128.611 20.7V37H120.111V21.85C120.111 19.9833 119.628 18.5333 118.661 17.5C117.694 16.4667 116.394 15.95 114.761 15.95C113.128 15.95 111.828 16.4667 110.861 17.5C109.894 18.5333 109.411 19.9833 109.411 21.85V37H100.861V9.1H109.411V12.8C110.278 11.5667 111.444 10.6 112.911 9.9C114.378 9.16667 116.028 8.8 117.861 8.8Z"
            fill="url(#paint0_linear_2030_451)" />
        <path
            d="M132.002 23.05C132.002 20.15 132.586 17.6167 133.752 15.45C134.952 13.2833 136.602 11.6167 138.702 10.45C140.836 9.28333 143.269 8.7 146.002 8.7C149.502 8.7 152.419 9.61666 154.752 11.45C157.119 13.2833 158.669 15.8667 159.402 19.2H150.302C149.536 17.0667 148.052 16 145.852 16C144.286 16 143.036 16.6167 142.102 17.85C141.169 19.05 140.702 20.7833 140.702 23.05C140.702 25.3167 141.169 27.0667 142.102 28.3C143.036 29.5 144.286 30.1 145.852 30.1C148.052 30.1 149.536 29.0333 150.302 26.9H159.402C158.669 30.1667 157.119 32.7333 154.752 34.6C152.386 36.4667 149.469 37.4 146.002 37.4C143.269 37.4 140.836 36.8167 138.702 35.65C136.602 34.4833 134.952 32.8167 133.752 30.65C132.586 28.4833 132.002 25.95 132.002 23.05ZM175.826 37.4C173.092 37.4 170.626 36.8167 168.426 35.65C166.259 34.4833 164.542 32.8167 163.276 30.65C162.042 28.4833 161.426 25.95 161.426 23.05C161.426 20.1833 162.059 17.6667 163.326 15.5C164.592 13.3 166.326 11.6167 168.526 10.45C170.726 9.28333 173.192 8.7 175.926 8.7C178.659 8.7 181.126 9.28333 183.326 10.45C185.526 11.6167 187.259 13.3 188.526 15.5C189.792 17.6667 190.426 20.1833 190.426 23.05C190.426 25.9167 189.776 28.45 188.476 30.65C187.209 32.8167 185.459 34.4833 183.226 35.65C181.026 36.8167 178.559 37.4 175.826 37.4ZM175.826 30C177.459 30 178.842 29.4 179.976 28.2C181.142 27 181.726 25.2833 181.726 23.05C181.726 20.8167 181.159 19.1 180.026 17.9C178.926 16.7 177.559 16.1 175.926 16.1C174.259 16.1 172.876 16.7 171.776 17.9C170.676 19.0667 170.126 20.7833 170.126 23.05C170.126 25.2833 170.659 27 171.726 28.2C172.826 29.4 174.192 30 175.826 30ZM192.412 23C192.412 20.1333 192.945 17.6167 194.012 15.45C195.112 13.2833 196.595 11.6167 198.462 10.45C200.328 9.28333 202.412 8.7 204.712 8.7C206.545 8.7 208.212 9.08333 209.712 9.85C211.245 10.6167 212.445 11.65 213.312 12.95V-4.76837e-07H221.862V37H213.312V33C212.512 34.3333 211.362 35.4 209.862 36.2C208.395 37 206.678 37.4 204.712 37.4C202.412 37.4 200.328 36.8167 198.462 35.65C196.595 34.45 195.112 32.7667 194.012 30.6C192.945 28.4 192.412 25.8667 192.412 23ZM213.312 23.05C213.312 20.9167 212.712 19.2333 211.512 18C210.345 16.7667 208.912 16.15 207.212 16.15C205.512 16.15 204.062 16.7667 202.862 18C201.695 19.2 201.112 20.8667 201.112 23C201.112 25.1333 201.695 26.8333 202.862 28.1C204.062 29.3333 205.512 29.95 207.212 29.95C208.912 29.95 210.345 29.3333 211.512 28.1C212.712 26.8667 213.312 25.1833 213.312 23.05ZM253.497 22.6C253.497 23.4 253.447 24.2333 253.347 25.1H233.997C234.131 26.8333 234.681 28.1667 235.647 29.1C236.647 30 237.864 30.45 239.297 30.45C241.431 30.45 242.914 29.55 243.747 27.75H252.847C252.381 29.5833 251.531 31.2333 250.297 32.7C249.097 34.1667 247.581 35.3167 245.747 36.15C243.914 36.9833 241.864 37.4 239.597 37.4C236.864 37.4 234.431 36.8167 232.297 35.65C230.164 34.4833 228.497 32.8167 227.297 30.65C226.097 28.4833 225.497 25.95 225.497 23.05C225.497 20.15 226.081 17.6167 227.247 15.45C228.447 13.2833 230.114 11.6167 232.247 10.45C234.381 9.28333 236.831 8.7 239.597 8.7C242.297 8.7 244.697 9.26667 246.797 10.4C248.897 11.5333 250.531 13.15 251.697 15.25C252.897 17.35 253.497 19.8 253.497 22.6ZM244.747 20.35C244.747 18.8833 244.247 17.7167 243.247 16.85C242.247 15.9833 240.997 15.55 239.497 15.55C238.064 15.55 236.847 15.9667 235.847 16.8C234.881 17.6333 234.281 18.8167 234.047 20.35H244.747Z"
            fill="white" />
    </g>
    <defs>
        <filter id="filter0_d_2030_451" x="0.192139" y="0" width="257.305" height="58.25"
            filterUnits="userSpaceOnUse" color-interpolation-filters="sRGB">
            <feFlood flood-opacity="0" result="BackgroundImageFix" />
            <feColorMatrix in="SourceAlpha" type="matrix"
                values="0 0 0 0 0 0 0 0 0 0 0 0 0 0 0 0 0 0 127 0" result="hardAlpha" />
            <feOffset dy="4" />
            <feGaussianBlur stdDeviation="2" />
            <feComposite in2="hardAlpha" operator="out" />
            <feColorMatrix type="matrix" values="0 0 0 0 0 0 0 0 0 0 0 0 0 0 0 0 0 0 0.25 0" />
            <feBlend mode="normal" in2="BackgroundImageFix" result="effect1_dropShadow_2030_451" />
            <feBlend mode="normal" in="SourceGraphic" in2="effect1_dropShadow_2030_451"
                result="shape" />
        </filter>
        <linearGradient id="paint0_linear_2030_451" x1="128" y1="-18" x2="128" y2="57"
            gradientUnits="userSpaceOnUse">
            <stop offset="0.714957" stop-color="#7A3EC6" />
            <stop offset="1" stop-color="#7A3EC6" stop-opacity="0" />
        </linearGradient>
    </defs>
</svg>